PathFileType	4	(X/Y/Z)	./resultDataOpenSim/trcMotMarkerGrf/sub09/qtm-01-05.trc
DataRate	CameraRate	NumFrames	NumMarkers	Units	OrigDataRate	OrigDataStartFrame	OrigNumFrames
250.000000	250.000000	13	24	m	250.000000	233	465
Frame#	Time	L.Toe.Tip			R.Toe.Tip			L.Ankle.Lat			R.Ankle.Lat			L.Ankle.Med			R.Ankle.Med			L.Heel			R.Heel			L.Knee.Lat			R.Knee.Lat			L.Knee.Med			R.Knee.Med			L.Thigh.Upper			R.Thigh.Upper			L.ASIS			R.ASIS			V.Sacral			L.Acromium			R.Acromium			C7			L.Elbow			R.Elbow			L.Wrist.Lat			R.Wrist.Lat
		X1	Y1	Z1	X2	Y2	Z2	X3	Y3	Z3	X4	Y4	Z4	X5	Y5	Z5	X6	Y6	Z6	X7	Y7	Z7	X8	Y8	Z8	X9	Y9	Z9	X10	Y10	Z10	X11	Y11	Z11	X12	Y12	Z12	X13	Y13	Z13	X14	Y14	Z14	X15	Y15	Z15	X16	Y16	Z16	X17	Y17	Z17	X18	Y18	Z18	X19	Y19	Z19	X20	Y20	Z20	X21	Y21	Z21	X22	Y22	Z22	X23	Y23	Z23	X24	Y24	Z24

233	0.928	0.20085814	0.040026418	0.062421163	0.30650758	0.10987734	0.17892268	0.059336485	0.074537664	0.0061295723	0.1688614	0.16548881	0.19206935	0.066802955	0.095147593	0.10506512	0.18749545	0.20036237	0.10751738	-0.018828794	0.044586338	0.042174314	0.10274108	0.15634067	0.13401945	0.17633687	0.47543846	-0.043296614	0.37200703	0.56472121	0.2336854	0.15388623	0.48026482	0.081793545	0.37907805	0.55196216	0.10499324	0.18047141	0.90047757	-0.10803453	0.15725629	0.91369963	0.26259354	0.25879493	0.9872855	-0.040165639	0.23665472	0.99843772	0.19599914	0.082996251	1.0482192	0.060988597	0.27626136	1.4403485	-0.078255802	0.20566735	1.4554834	0.24353922	0.17723381	1.4990328	0.070635324	0.14161138	1.0979521	-0.16629525	0.036896278	1.1296388	0.30386048	0.32581742	0.89949321	-0.1590733	0.15560606	0.88998308	0.3598849
234	0.932	0.20087166	0.039944995	0.062505853	0.32653762	0.10897889	0.1787736	0.059241249	0.074735132	0.0064088849	0.18731406	0.16081475	0.19213391	0.067026612	0.095311912	0.10513709	0.20644729	0.19667817	0.10770996	-0.018953063	0.044869991	0.042549563	0.12155136	0.15008807	0.13444395	0.17735087	0.47527287	-0.043359685	0.38064654	0.56608334	0.23388013	0.15531	0.48013808	0.081751086	0.38690224	0.55299526	0.1054116	0.18598868	0.90017817	-0.10766072	0.16369009	0.91354224	0.26302746	0.26451931	0.98686953	-0.040114647	0.24282845	0.99832275	0.19617548	0.090073956	1.047767	0.06277595	0.28228568	1.4400979	-0.078166248	0.21172666	1.45521	0.24363578	0.18325458	1.4987725	0.07072673	0.14832446	1.0972163	-0.16608761	0.042763984	1.1295927	0.30369484	0.33390567	0.90004055	-0.15809346	0.1606219	0.88979464	0.36029195
235	0.936	0.20089367	0.039887802	0.062551832	0.3464929	0.10814482	0.17859811	0.059255851	0.074909445	0.0066209747	0.20591	0.15621161	0.19218877	0.06740565	0.095451435	0.10514889	0.22844125	0.19158654	0.10667466	-0.019028696	0.045142432	0.042849059	0.14050825	0.14390303	0.13478525	0.17849988	0.47512521	-0.043482306	0.38915861	0.56722843	0.23407579	0.15686507	0.47997525	0.081660885	0.3943932	0.55377436	0.10611655	0.19124544	0.89982156	-0.10717634	0.17011305	0.91326235	0.26345291	0.2702952	0.98640615	-0.040072173	0.24900465	0.99810685	0.19634774	0.09769113	1.0471751	0.06517626	0.28831941	1.439764	-0.078077612	0.21780423	1.4548637	0.24373191	0.18929416	1.4984444	0.070840334	0.155181	1.0964122	-0.16603885	0.048534167	1.129482	0.3036684	0.34197941	0.90051801	-0.1571215	0.16571226	0.88952239	0.36070051
236	0.94	0.20093079	0.039850765	0.062559487	0.3664028	0.10737193	0.17838159	0.059340936	0.075045123	0.0067743112	0.22465166	0.15168857	0.19228326	0.067760183	0.095585823	0.10519452	0.25138439	0.18551573	0.10479924	-0.019057055	0.045409716	0.043093934	0.15962324	0.13778134	0.1350549	0.17973594	0.47499074	-0.043639364	0.39747063	0.56808638	0.23420369	0.1582352	0.47989525	0.081591248	0.40158704	0.55431991	0.10692882	0.19614803	0.89940821	-0.10649552	0.17651933	0.91286064	0.26386913	0.27611929	0.98589484	-0.040037185	0.25518812	0.99779904	0.19651585	0.10522328	1.0465278	0.06746792	0.29436512	1.4393541	-0.077994214	0.22389831	1.4544467	0.24382668	0.19534767	1.4980563	0.070967783	0.16205896	1.0955502	-0.16601758	0.054225529	1.1293114	0.30375204	0.35004699	0.90093045	-0.1561528	0.17087458	0.88915574	0.36110631
237	0.944	0.20096976	0.039826729	0.062549253	0.38630306	0.10664195	0.1781112	0.059463062	0.07514981	0.006888182	0.24353351	0.14725071	0.19242755	0.068025434	0.095721737	0.10529552	0.27283309	0.1794016	0.1028926	-0.019064405	0.045673706	0.043328825	0.17889312	0.13175442	0.13527939	0.18096816	0.47485996	-0.043811915	0.40556995	0.56866131	0.23426979	0.15916894	0.47994612	0.081607461	0.40866907	0.55468721	0.10756824	0.20080823	0.89894787	-0.10565722	0.18292047	0.91235291	0.26428345	0.28197225	0.98533304	-0.04001425	0.26138897	0.99741153	0.19668068	0.1121309	1.0458759	0.069025626	0.30041736	1.4388726	-0.077915713	0.23000266	1.4539611	0.2439255	0.20140367	1.4975991	0.071097969	0.16881057	1.0946205	-0.16586027	0.059924241	1.1290756	0.30387004	0.35811144	0.90128093	-0.15518288	0.17608186	0.88869164	0.36150663
238	0.948	0.20099343	0.039816147	0.062539664	0.40622539	0.10593188	0.17777917	0.05958076	0.075248545	0.0069940614	0.26256047	0.14288705	0.19259737	0.068232503	0.095854547	0.10542545	0.29200939	0.17411103	0.10165711	-0.019069601	0.045929068	0.043584801	0.19832794	0.12585335	0.13546069	0.18213627	0.47473059	-0.043989328	0.4134778	0.56900894	0.23432517	0.15983704	0.48005429	0.081671437	0.4158143	0.55491563	0.10790111	0.20548358	0.89844559	-0.10486551	0.18933345	0.9117599	0.2647044	0.28784153	0.98472044	-0.040005731	0.26761555	0.99695024	0.19684324	0.11843171	1.0452106	0.069870973	0.30646958	1.4383219	-0.077837427	0.23610595	1.4534122	0.24403654	0.20745179	1.4970614	0.07122121	0.17542217	1.0936079	-0.16554418	0.065684658	1.1287698	0.30398255	0.36616569	0.90156882	-0.1542137	0.18130958	0.88813733	0.36190508
239	0.952	0.20098564	0.039821491	0.062537573	0.4261951	0.10523425	0.17738465	0.059624927	0.075368928	0.0071349391	0.28170858	0.13859729	0.19276023	0.068420426	0.09598273	0.10556243	0.30979211	0.16988979	0.10125347	-0.019077379	0.046172067	0.043879717	0.21792649	0.12009885	0.13560791	0.18323266	0.47460727	-0.04416316	0.42121496	0.56918798	0.23441651	0.16070829	0.48011949	0.081674692	0.42306235	0.55500063	0.10802998	0.2103095	0.89789012	-0.10433077	0.19576261	0.91109606	0.26513297	0.29372879	0.98405953	-0.040006843	0.27386923	0.99641092	0.19700232	0.1244594	1.0445016	0.070387786	0.31251958	1.4377049	-0.07775475	0.24219686	1.4528048	0.24416337	0.21349159	1.4964472	0.071330798	0.18202522	1.0925124	-0.16520119	0.071512496	1.1283892	0.30409259	0.37420241	0.90179417	-0.15324827	0.18654522	0.88750379	0.36230606
240	0.956	0.20093928	0.039838739	0.062537959	0.44621971	0.10456282	0.17694226	0.059552187	0.075519388	0.0073255218	0.30090839	0.13440972	0.19290656	0.068604823	0.096113778	0.10570438	0.32730492	0.1664251	0.10139376	-0.019088357	0.046410922	0.044222485	0.23761153	0.1145194	0.13579249	0.18427315	0.47449327	-0.044330866	0.42879509	0.56924521	0.23455506	0.1620558	0.48010735	0.08157572	0.43035106	0.55492263	0.10815031	0.21519229	0.89726226	-0.10410919	0.20219954	0.9103686	0.26556349	0.29964157	0.98335188	-0.040008594	0.28014761	0.99578648	0.19715843	0.13047174	1.0437343	0.07086565	0.31856832	1.4370246	-0.077665698	0.24828429	1.4521339	0.24430298	0.21953417	1.4957723	0.07143015	0.18874616	1.091353	-0.16496514	0.077389749	1.1279283	0.30421533	0.3822214	0.90195978	-0.15228543	0.19177127	0.88679698	0.36270642
241	0.96	0.20086949	0.039856237	0.06253192	0.4662869	0.10394059	0.17648218	0.05939305	0.075686319	0.0075333102	0.32009664	0.13036144	0.1930607	0.068787576	0.096258858	0.1058601	0.34508677	0.16331088	0.101728	-0.019108531	0.046664402	0.044610721	0.25726087	0.1091501	0.13611902	0.18527087	0.47438868	-0.04450106	0.43623261	0.56921374	0.23470505	0.16370264	0.48004518	0.081440569	0.43758863	0.55467246	0.10839509	0.22004625	0.89656898	-0.10408047	0.20863666	0.90958054	0.26599022	0.30558161	0.98259645	-0.040005841	0.28645157	0.99507625	0.19731549	0.13655042	1.0429063	0.071393048	0.32461602	1.4362815	-0.077569942	0.25440409	1.4513853	0.24444683	0.22559377	1.4950481	0.071528912	0.19557997	1.090153	-0.16483887	0.083296333	1.1273875	0.30436102	0.39022666	0.90206833	-0.1513217	0.19696245	0.88601348	0.36309832
242	0.964	0.20080873	0.039863275	0.062510576	0.48635968	0.10340586	0.17604054	0.05921093	0.075856937	0.0077272561	0.33926875	0.12648028	0.1932515	0.068972343	0.096424972	0.10603886	0.3631737	0.16032688	0.10206084	-0.019147133	0.046949761	0.045035387	0.27685678	0.10400058	0.1365853	0.18623793	0.47429324	-0.044685003	0.44353516	0.56910078	0.23481231	0.16530967	0.47997701	0.081326358	0.44469474	0.55424876	0.10877707	0.22498586	0.89586212	-0.10402001	0.21507118	0.90873064	0.26641164	0.31154177	0.98179246	-0.040002148	0.29278551	0.99428582	0.19747581	0.14268259	1.042014	0.071958508	0.33066084	1.4354773	-0.077468571	0.26057583	1.4505564	0.24458697	0.23168127	1.4942723	0.071627263	0.20241828	1.0889206	-0.16471313	0.089220363	1.1267759	0.30452998	0.39822041	0.90211908	-0.15035613	0.20210632	0.88514717	0.3634806
243	0.968	0.20078212	0.039859154	0.062457926	0.5063756	0.10301968	0.17564763	0.059040976	0.076033229	0.0079232638	0.35846753	0.12278939	0.19347924	0.069168313	0.096613972	0.10624611	0.38142904	0.15742205	0.10233602	-0.019207061	0.047274126	0.045495102	0.29650431	0.099052518	0.13706542	0.18719524	0.47420826	-0.044889058	0.45069536	0.56888157	0.23485514	0.16680482	0.47993926	0.081175891	0.45164136	0.55365315	0.10920518	0.23016939	0.89519648	-0.10374693	0.22150041	0.90781503	0.26683118	0.3175123	0.98093924	-0.040004144	0.29915297	0.99342183	0.19764158	0.14885047	1.0410536	0.072546107	0.33670052	1.4346168	-0.077362664	0.26676625	1.4496685	0.24472637	0.23780033	1.4934242	0.071717233	0.20915642	1.087644	-0.16447059	0.095158002	1.1261026	0.30470374	0.40619985	0.90210892	-0.14939059	0.20722544	0.88420369	0.36386635
244	0.972	0.20079537	0.039848721	0.062355709	0.52628177	0.10283383	0.17531927	0.058884089	0.076224476	0.0081604671	0.3777307	0.11930832	0.19372269	0.069382548	0.096827364	0.10648326	0.39974646	0.15461537	0.10255732	-0.019282102	0.047638468	0.046002985	0.31627955	0.094294632	0.13746638	0.18817027	0.47413846	-0.045121985	0.45770567	0.56851644	0.2348619	0.16840595	0.47995845	0.080868161	0.45849477	0.55289291	0.10954401	0.23557557	0.89457654	-0.10323787	0.22792321	0.90683227	0.26725437	0.32348586	0.98003181	-0.040014616	0.30555655	0.99248853	0.19781855	0.15506636	1.040025	0.073168216	0.34273535	1.4337039	-0.077251079	0.27293201	1.4487438	0.24487555	0.24393676	1.492485	0.071804941	0.21576448	1.0863098	-0.16406608	0.10110722	1.1253675	0.3048473	0.41415816	0.90203746	-0.14842487	0.21237486	0.88320468	0.36427678
245	0.976	0.20083146	0.039835689	0.062214724	0.5460744	0.10285646	0.17505656	0.058725955	0.076441458	0.008455287	0.39705319	0.11604793	0.19396569	0.069614623	0.097070418	0.10674729	0.41809045	0.15193622	0.10273948	-0.019363545	0.048044658	0.046580688	0.33616967	0.089735925	0.13779248	0.18918011	0.47409106	-0.045392449	0.46457215	0.5679752	0.23489033	0.17021846	0.48003992	0.080391683	0.4654118	0.55198272	0.1096712	0.24104181	0.89396099	-0.10258298	0.23434297	0.90578483	0.2676839	0.32945939	0.97906248	-0.040032631	0.31199663	0.99148462	0.1980078	0.1613545	1.0389309	0.073847484	0.34876938	1.4327375	-0.077131735	0.27907035	1.447783	0.24504087	0.25006641	1.4914676	0.071916339	0.22229638	1.0849199	-0.16354731	0.10706682	1.1245667	0.3049454	0.42208993	0.90190881	-0.14745524	0.2176011	0.88217198	0.36472442
